<svg width="432" height="64" viewBox="0 0 432 64" fill="none" xmlns="http://www.w3.org/2000/svg">
<path d="M94.4271 21.9452H72.8137L46.5674 46.7836C45.4882 47.8057 43.2716 48.6411 41.6416 48.6411H24.7184L10.3983 62.1912C9.35003 63.1868 9.78533 64 11.371 64H49.9876C51.6 64 53.7941 63.1734 54.8645 62.1602L95.4177 23.7806C96.4881 22.7674 96.0395 21.9408 94.4271 21.9408V21.9452Z" fill="white"/>
<path d="M44.951 40.2194L85.5041 1.83987C86.5745 0.826608 86.1259 0 84.5135 0H46.0126C44.4002 0 42.206 0.826608 41.1356 1.83987L0.582339 40.2194C-0.488122 41.2327 -0.0395055 42.0594 1.57285 42.0594H40.074C41.6862 42.0594 43.8806 41.2327 44.951 40.2194Z" fill="white"/>
<path d="M112 46.7906C112 46.2769 112.305 46.0201 112.915 46.0201H118.532C119.055 46.0201 119.418 46.3055 119.621 46.8763C122.118 54.1824 128.476 57.8354 138.696 57.8354C144.038 57.8354 148.117 56.9079 150.933 55.0528C153.778 53.1692 155.201 50.8433 155.201 48.0749C155.201 45.3066 154.301 43.0805 152.501 41.3967C150.73 39.6843 147.943 38.3001 144.139 37.2441L128.505 32.8776C118.402 30.0236 113.35 24.6154 113.35 16.6528C113.35 11.744 115.469 7.7485 119.708 4.66622C123.976 1.55541 129.681 0 136.823 0C143.965 0 149.728 1.5126 154.112 4.53779C158.525 7.53445 161.298 11.6584 162.43 16.9097C162.546 17.6232 162.242 17.9799 161.516 17.9799H155.898C155.375 17.9799 155.012 17.6803 154.809 17.0809C152.312 9.77481 146.375 6.12174 136.997 6.12174C132.062 6.12174 128.215 7.06354 125.457 8.94716C122.728 10.8022 121.363 13.1425 121.363 15.9679C121.363 18.7648 122.249 20.9766 124.02 22.6033C125.82 24.2301 128.65 25.6 132.512 26.713L148.146 31.1224C158.191 33.9193 163.214 39.3275 163.214 47.3472C163.214 52.313 161.022 56.3371 156.638 59.4194C152.283 62.4731 146.302 64 138.696 64C131.089 64 125.021 62.5017 120.492 59.505C118.228 58.021 116.239 56.1373 114.526 53.8542C112.842 51.5425 112 49.188 112 46.7906Z" fill="white"/>
<path d="M169.151 61.8167V2.18328C169.151 1.61249 169.442 1.31282 170.022 1.28428H195.891C203.323 1.28428 209.043 3.03946 213.049 6.54983C217.085 10.0602 219.103 15.1831 219.103 21.9184C219.103 28.6252 217.085 33.7338 213.049 37.2441C209.043 40.7545 203.323 42.5097 195.891 42.5097H177.164V61.8167C177.164 62.3875 176.874 62.6729 176.294 62.6729H170.022C169.442 62.6729 169.151 62.3875 169.151 61.8167ZM177.164 36.388H195.891C200.594 36.388 204.296 35.1893 206.996 32.792C209.696 30.3946 211.046 26.7701 211.046 21.9184C211.046 17.0667 209.696 13.4421 206.996 11.0448C204.296 8.64749 200.594 7.44883 195.891 7.44883H177.164V36.388Z" fill="white"/>
<path d="M216.243 61.8167L239.89 3.93846C240.616 2.19755 241.952 1.31282 243.897 1.28428H246.597C248.571 1.28428 249.907 2.16901 250.603 3.93846L274.251 61.8167C274.338 61.988 274.381 62.1164 274.381 62.202C274.381 62.5159 274.091 62.6729 273.51 62.6729H267.109C266.528 62.6729 266.078 62.3875 265.759 61.8167L259.531 46.8763H230.963L224.735 61.8167C224.445 62.3875 223.995 62.6729 223.385 62.6729H216.983C216.432 62.6729 216.156 62.5159 216.156 62.202C216.127 62.1164 216.156 61.988 216.243 61.8167ZM233.227 40.7545H257.31L245.247 11.3873L233.227 40.7545Z" fill="white"/>
<path d="M267.863 6.54983V2.18328C267.863 1.61249 268.154 1.31282 268.734 1.28428H319.6C320.181 1.28428 320.471 1.58395 320.471 2.18328V6.54983C320.471 7.12062 320.181 7.42029 319.6 7.44883H297.738V61.8167C297.738 62.3875 297.448 62.6729 296.867 62.6729H290.596C290.016 62.6729 289.725 62.3875 289.725 61.8167V7.44883H268.734C268.154 7.42029 267.863 7.12062 267.863 6.54983Z" fill="white"/>
<path d="M323.752 61.8167V2.18328C323.752 1.58395 324.042 1.28428 324.623 1.28428H330.894C331.475 1.28428 331.765 1.58395 331.765 2.18328V61.8167C331.765 62.3875 331.475 62.6729 330.894 62.6729H324.623C324.042 62.6729 323.752 62.3875 323.752 61.8167Z" fill="white"/>
<path d="M336.004 61.8167L359.651 3.93846C360.377 2.19755 361.713 1.31282 363.658 1.28428H366.358C368.332 1.28428 369.668 2.16901 370.364 3.93846L394.012 61.8167C394.099 61.988 394.142 62.1164 394.142 62.202C394.142 62.5159 393.852 62.6729 393.271 62.6729H386.87C386.289 62.6729 385.839 62.3875 385.52 61.8167L379.292 46.8763H350.724L344.496 61.8167C344.206 62.3875 343.756 62.6729 343.146 62.6729H336.744C336.193 62.6729 335.917 62.5159 335.917 62.202C335.888 62.1164 335.917 61.988 336.004 61.8167ZM352.988 40.7545H377.071L365.008 11.3873L352.988 40.7545Z" fill="white"/>
<path d="M398.251 61.8167V2.18328C398.251 1.58395 398.541 1.28428 399.122 1.28428H405.393C405.973 1.28428 406.264 1.58395 406.264 2.18328V56.5512H431.062C431.671 56.5512 432 56.8366 432 57.4074V61.8167C432 62.3875 431.671 62.6729 431.062 62.6729H399.122C398.541 62.6729 398.251 62.3875 398.251 61.8167Z" fill="white"/>
</svg>
