<svg height="64" viewBox="0 0 112 17" fill="none" xmlns="http://www.w3.org/2000/svg">
<path d="M23.6068 5.9863H18.2034L11.6418 12.1959C11.372 12.4514 10.8179 12.6603 10.4104 12.6603H6.17959L2.59957 16.0478C2.33751 16.2967 2.44633 16.5 2.84276 16.5H12.4969C12.9 16.5 13.4485 16.2933 13.7161 16.0401L23.8544 6.44515C24.122 6.19186 24.0099 5.9852 23.6068 5.9852V5.9863Z" fill="#0F0F0F"/>
<path d="M11.2377 10.5549L21.376 0.959969C21.6436 0.706653 21.5315 0.5 21.1284 0.5H11.5031C11.1 0.5 10.5515 0.706653 10.2839 0.959969L0.145585 10.5549C-0.12203 10.8082 -0.00987637 11.0148 0.393212 11.0148H10.0185C10.4215 11.0148 10.9701 10.8082 11.2377 10.5549Z" fill="#0F0F0F"/>
<path d="M38.6051 16.5C36.593 16.5 34.9964 16.0386 33.8153 15.1157C32.6488 14.1929 32.0437 12.9222 32 11.3036H35.1713C35.2151 12.1413 35.5359 12.7873 36.1337 13.2416C36.7315 13.6959 37.548 13.9231 38.5833 13.9231C39.4727 13.9231 40.1726 13.7598 40.6829 13.4333C41.1932 13.0925 41.4484 12.624 41.4484 12.0277C41.4484 11.5308 41.2662 11.1546 40.9016 10.899C40.5371 10.6292 39.9247 10.3879 39.0644 10.1749L36.1993 9.47212C34.9745 9.17397 34.0267 8.66285 33.356 7.93876C32.6999 7.21468 32 6.32022 32 5.25539C32 3.935 32.8749 2.81338 33.8809 1.89052C34.8724 0.967669 36.3087 0.506243 38.1896 0.506243C40.0705 0.506243 41.5724 0.960571 42.6951 1.86923C43.8178 2.79208 44.8955 3.99889 44.9975 5.48965H41.9981C41.896 4.73717 40.9454 4.14796 40.3767 3.72203C39.8081 3.2961 39.0863 3.08313 38.2115 3.08313C37.4241 3.08313 36.7971 3.25351 36.3305 3.59425C35.8639 3.935 35.6306 4.37513 35.6306 4.91464C35.6306 5.75231 36.2357 6.32022 37.446 6.61837L40.5517 7.36375C43.3804 8.03105 44.9975 9.54065 44.9975 11.7839C44.9975 13.2605 44.2407 14.3703 43.1325 15.2222C42.0389 16.0741 40.5298 16.5 38.6051 16.5Z" fill="#0F0F0F"/>
<path d="M45.9972 0.5L51.4961 0.514245C53.1875 0.514245 54.6202 1.31637 55.5825 2.18243C56.5448 3.04849 57.0184 4.4787 57.0184 5.99785C57.0184 7.5738 56.5303 9.11603 55.5388 9.99629C54.5473 10.8766 53.2135 11.4957 51.3909 11.4957H49.008L48.9966 16.4938H45.9972V0.5ZM48.9966 8.49688H51.3093C52.2424 8.49688 52.7786 8.45783 53.2597 8.0603C53.7555 7.66276 54.0498 6.73614 54.0498 5.99785C54.0498 5.28797 53.7117 4.39617 53.2597 3.99863C52.8077 3.6011 52.3077 3.50282 51.5203 3.50282H48.9966V8.49688Z" fill="#0F0F0F"/>
<path d="M68.9928 0.506243H81.9903V3.50507H76.9913V16.5H73.9984V3.50507H68.9928V0.506243Z" fill="#0F0F0F"/>
<path d="M86.0043 16.5H82.9899V0.506243H85.9894L86.0043 16.5Z" fill="#0F0F0F"/>
<path d="M105.985 0.506243V13.5012H112V16.5H102.986V0.506243H105.985Z" fill="#0F0F0F"/>
<path fill-rule="evenodd" clip-rule="evenodd" d="M71.0274 16.5H67.993L66.2506 11.502H60.7371L58.9947 16.5H55.9953L61.9941 0.506243H64.9935L71.0274 16.5ZM65.2051 8.50312L63.4938 3.59425L61.7825 8.50312H65.2051Z" fill="#0F0F0F"/>
<path fill-rule="evenodd" clip-rule="evenodd" d="M102.021 16.5H98.9867L97.2443 11.502H91.7308L89.9884 16.5H86.989L92.9878 0.506243H95.9873L102.021 16.5ZM96.1989 8.50312L94.4876 3.59425L92.7763 8.50312H96.1989Z" fill="#0F0F0F"/>
</svg>
