<svg height="64" viewBox="0 0 96 65" fill="none" xmlns="http://www.w3.org/2000/svg">
<path d="M94.4271 22.4452H72.8137L46.5674 47.2836C45.4882 48.3057 43.2716 49.1411 41.6416 49.1411H24.7184L10.3983 62.6912C9.35003 63.6868 9.78533 64.5 11.371 64.5H49.9876C51.6 64.5 53.7941 63.6734 54.8645 62.6602L95.4177 24.2806C96.4881 23.2674 96.0395 22.4408 94.4271 22.4408V22.4452Z" fill="#0F0F0F"/>
<path d="M44.951 40.7194L85.5041 2.33987C86.5745 1.32661 86.1259 0.5 84.5135 0.5H46.0126C44.4002 0.5 42.206 1.32661 41.1356 2.33987L0.582339 40.7194C-0.488122 41.7327 -0.0395055 42.5594 1.57285 42.5594H40.074C41.6862 42.5594 43.8806 41.7327 44.951 40.7194Z" fill="#0F0F0F"/>
</svg>
